# xmcd CD database file
#
# Track frame offsets:
#	150
#	17760
#	32825
#	51730
#	71157
#	88987
#	105430
#	118760
#	142965
#	160592
#	175605
#	194465
#	213902
#	231787
#	248225
#	261597
#
# Disc length: 3808 seconds
#
# Revision: 0
# Processed by: cddbd v1.5.1PL0 Copyright (c) Steve Scherf et al.
# Submitted via: CDex 1.51
#
DISCID=e80ede10
DTITLE=Various Artist - Ultra Super Special Sellection
DYEAR=1900
DGENRE=Anime
TTITLE0=ウルトラマンガイア！
TTITLE1=ガイア　ノ　チカラ
TTITLE2=ウルトラマンダイナ
TTITLE3=いまこそフラッシュ
TTITLE4=ミラクルの風になれ
TTITLE5=ダイナの赤い輝きに
TTITLE6=Take Off!! スーパーGUTS
TTITLE7=TAKE ME HIGHER
TTITLE8=ウルトラマンガイア！（KARAOKE)
TTITLE9=ガイア　ノ　チカラ(KARAOKE)
TTITLE10=ウルトラマンダイナ(KARAOKE)
TTITLE11=いまこそフラッシュ(KARAOKE)
TTITLE12=ミラクルの風になれ(KARAOKE)
TTITLE13=ダイナの赤い輝きに(KARAOKE)
TTITLE14=Take Off!! スーパーGUTS(KARAOKE)
TTITLE15=TAKE ME HIGHER(KARAOKE)
EXTD=
EXTT0=
EXTT1=
EXTT2=
EXTT3=
EXTT4=
EXTT5=
EXTT6=
EXTT7=
EXTT8=
EXTT9=
EXTT10=
EXTT11=
EXTT12=
EXTT13=
EXTT14=
EXTT15=
PLAYORDER=
